<svg t="1617013593903" class="icon" viewBox="0 0 1024 1024" version="1.1" xmlns="http://www.w3.org/2000/svg" p-id="4135" width="200" height="200">
    <path d="M331.4176 51.2v921.6h537.6a76.8 76.8 0 0 0 76.8-76.8v-768a76.8 76.8 0 0 0-76.8-76.8h-537.6z m-51.2 921.6V51.2h-76.8a76.8 76.8 0 0 0-76.8 76.8v768a76.8 76.8 0 0 0 76.8 76.8h76.8z m358.4-317.7984l84.2752-84.3264a25.6 25.6 0 0 1 36.1984 36.2496L674.816 691.2l84.2752 84.2752a25.6 25.6 0 1 1-36.1984 36.2496l-84.2752-84.3264-84.3264 84.3264a25.6 25.6 0 0 1-36.1984-36.2496l84.3264-84.2752-84.3264-84.2752a25.6 25.6 0 1 1 36.1984-36.2496l84.3264 84.3264z m108.3392-440.9856a25.6 25.6 0 0 1 39.3216 32.768l-128 153.6a25.6 25.6 0 0 1-35.0208 4.096l-102.4-76.8a25.6 25.6 0 0 1 30.72-40.96l82.944 62.208 112.4352-134.912zM203.4176 0h665.6a128 128 0 0 1 128 128v768a128 128 0 0 1-128 128h-665.6a128 128 0 0 1-128-128v-768a128 128 0 0 1 128-128z"></path>
</svg>
