<svg t="1615713475344" class="icon" viewBox="0 0 1024 1024" version="1.1" xmlns="http://www.w3.org/2000/svg" p-id="2178" width="200" height="200">
    <path d="M927.42 291.81H96.58c-16.57 0-30-13.43-30-30V149.15c0-16.57 13.43-30 30-30h830.59c16.71 0 30.26 13.55 30.26 30.26V261.8c-0.01 16.58-13.44 30.01-30.01 30.01zM927.42 341.81H96.58c-16.57 0-30 13.43-30 30V881.2c0 16.57 13.43 30 30 30h830.85c16.57 0 30-13.43 30-30V371.81c-0.01-16.57-13.44-30-30.01-30zM802 484.26c0 16.57-13.43 30-30 30H252c-16.57 0-30-13.43-30-30s13.43-30 30-30h520c16.57 0 30 13.44 30 30z"/>
</svg>
