<svg t="1615453642311" class="icon" viewBox="0 0 1024 1024" version="1.1" xmlns="http://www.w3.org/2000/svg" p-id="4805" width="200" height="200">
    <path d="M715.648 410.1696C715.648 376.4416 688.288 349.0816 654.56 349.0816 620.832 349.0816 593.472 376.4416 593.472 410.1696 593.472 443.8976 620.832 471.2576 654.56 471.2576 688.288 471.2576 715.648 443.8976 715.648 410.1696M693.984 593.4336 330.048 593.4336C315.136 593.4336 304.64 607.5776 309.632 620.8896 339.2 699.8336 418.624 756.3456 512 756.3456 605.408 756.3456 684.832 699.8336 714.4 620.8896 719.392 607.5776 708.896 593.4336 693.984 593.4336M308.384 410.1696C308.384 443.8976 335.744 471.2576 369.472 471.2576 403.2 471.2576 430.56 443.8976 430.56 410.1696 430.56 376.4416 403.2 349.0816 369.472 349.0816 335.744 349.0816 308.384 376.4416 308.384 410.1696M960 511.9936C960 759.4176 759.424 959.9936 512 959.9936 428.64 959.9936 350.848 936.8256 284.032 897.1456L99.232 949.9136C83.872 954.2976 69.664 940.1216 74.08 924.7616L126.848 739.9936C87.2 673.1456 64 595.3536 64 511.9936 64 264.5696 264.608 63.9936 512 63.9936 759.424 63.9936 960 264.5696 960 511.9936"
          p-id="4806"></path>
</svg>
