<?xml version="1.0" standalone="no"?><!DOCTYPE svg PUBLIC "-//W3C//DTD SVG 1.1//EN" "http://www.w3.org/Graphics/SVG/1.1/DTD/svg11.dtd">
<svg t="1615461743947" class="icon" viewBox="0 0 1024 1024" version="1.1" xmlns="http://www.w3.org/2000/svg" p-id="2466"
     width="200" height="200">
    <defs>
        <style type="text/css"/>
    </defs>
    <path d="M868.245333 619.221333c-33.514667-32.064-88.042667-27.072-120 6.549334L725.333333 649.856a4.928 4.928 0 0 1-7.210666 0l-22.912-24.085333c-31.957333-33.6-86.485333-38.613333-120-6.549334-35.989333 34.410667-36.970667 93.034667-2.986667 128.789334l29.909333 31.445333 104.64 110.08a20.48 20.48 0 0 0 29.909334 0l134.549333-141.525333c33.984-35.776 33.002667-94.378667-2.986667-128.789334zM512 64c-129.6 0-234.666667 105.066667-234.666667 234.666667 0 81.130667 41.173333 152.618667 103.765334 194.773333-148.864 55.68-255.765333 202.922667-255.765334 375.893333a32 32 0 1 0 64 0C189.333333 684.053333 334.08 533.333333 512 533.333333c129.6 0 234.666667-105.066667 234.666667-234.666666S641.6 64 512 64z"/>
</svg>
