<?xml version="1.0" standalone="no"?><!DOCTYPE svg PUBLIC "-//W3C//DTD SVG 1.1//EN" "http://www.w3.org/Graphics/SVG/1.1/DTD/svg11.dtd">
<svg t="1615461717989" class="icon" viewBox="0 0 1024 1024" version="1.1" xmlns="http://www.w3.org/2000/svg" p-id="2297"
     width="200" height="200">
    <defs>
        <style type="text/css"/>
    </defs>
    <path d="M955.764919 769.70841c0 34.408671-24.820292 62.164828-65.840544 61.457724-20.586874-0.074701-18.990516 0.408299-37.790698 0-32.920784-0.708128-30.762631-20.657482-41.466414-61.457724-26.342971-100.355639-137.770783-231.738945-163.187663-246.934019-66.992787-40.056298 18.056238-13.416568 18.056238-142.235468 0-33.06507-7.540743-74.605162-21.028942-102.547561-10.55131-21.884426-19.246343-42.098817 21.028942-40.796148 80.109526 2.52552 145.093563 64.203254 145.093563 143.343709 0 49.640584-25.523303 93.372597-64.314795 119.124098 7.578606 1.744737 15.268752 3.568269 23.815405 5.833869C876.65721 536.485671 955.764919 663.369499 955.764919 769.70841L955.764919 769.70841 955.764919 769.70841zM743.417627 840.009546c-0.296759 32.882921-14.492062 65.61644-70.260204 65.579601-125.659955-0.11154-478.0467 0.447185-538.870997 0-68.142983-0.484024-70.298066-34.073026-70.298066-65.579601 0-151.819754 103.552447-287.845801 242.588037-326.971913-61.192687-32.734542-91.846848-93.558839-91.846848-163.968445 0-102.774735 84.714404-186.373735 188.862415-186.373735s188.862415 83.599 188.862415 186.373735c0 70.446445-33.590026 131.233903-94.782713 163.968445C636.817774 552.164768 744.902444 689.566138 743.417627 840.009546L743.417627 840.009546 743.417627 840.009546zM743.417627 840.009546"/>
</svg>
