<?xml version="1.0" standalone="no"?><!DOCTYPE svg PUBLIC "-//W3C//DTD SVG 1.1//EN" "http://www.w3.org/Graphics/SVG/1.1/DTD/svg11.dtd"><svg t="1615452150899" class="icon" viewBox="0 0 1025 1024" version="1.1" xmlns="http://www.w3.org/2000/svg" p-id="3167" xmlns:xlink="http://www.w3.org/1999/xlink" width="200.1953125" height="200"><defs><style type="text/css"></style></defs><path d="M840.221764 125.476662l-657.326684 0c-65.963435 0-119.486963 53.579813-119.486963 119.605672l0 391.408836c0 65.90408 53.522505 119.425562 119.486963 119.425562l336.449541 0c0 0 139.181436 113.29464 158.063364 128.052447 18.882952 14.691288 26.511042 11.375617 26.26032 0-0.188297-11.383804-0.127919-128.052447-0.127919-128.052447l136.681379 0c66.091354 0 119.548365-53.521481 119.548365-119.425562L959.770129 245.082334C959.771152 179.056474 906.313119 125.476662 840.221764 125.476662zM319.513011 509.626839c-35.327248 0-64.024177-28.57208-64.024177-64.0252 0-35.449027 28.696929-64.024177 64.024177-64.024177 35.327248 0 64.026223 28.57515 64.026223 64.024177C383.539234 481.05476 354.841282 509.626839 319.513011 509.626839zM511.590658 509.626839c-35.327248 0-64.0252-28.57208-64.0252-64.0252 0-35.449027 28.697952-64.024177 64.0252-64.024177 35.327248 0 64.026223 28.57515 64.026223 64.024177C575.616881 481.05476 546.917906 509.626839 511.590658 509.626839zM703.668305 509.626839c-35.324178 0-64.024177-28.57208-64.024177-64.0252 0-35.449027 28.699999-64.024177 64.024177-64.024177 35.326224 0 64.026223 28.57515 64.026223 64.024177C767.694528 481.05476 738.993506 509.626839 703.668305 509.626839z" p-id="3168" fill="#FFFFFF"></path></svg>