<svg t="1617013446368" class="icon" viewBox="0 0 1025 1024" version="1.1" xmlns="http://www.w3.org/2000/svg" p-id="3541" width="200" height="200">
    <path d="M951.772 285.609c0 0-103.733-135.811-439.417-135.811-335.667 0-439.406 135.811-439.406 135.811-6.012 7.867-10.948 22.423-10.948 32.321v164.149c0 9.887 7.713 15.493 17.132 12.446l190.899-49.332c9.435-3.075 17.145-13.688 17.145-23.602v-70.663c0-129.904 450.639-120.888 450.639 0v60.223c0 9.936 7.597 20.854 16.91 24.297l190.871 58.353c9.293 3.443 16.882-1.837 16.906-11.723l0.192-164.149c0.011-9.896-4.901-24.454-10.922-32.32zM913.704 839.906l-7.965-133.838c-1.215-20.434-14.403-48.602-29.301-62.628l-190.686-166.822c0 0-5.16-142.003-69.049-142.003h-208.712c-70.626 0-68.94 141.528-68.94 141.528-13.597 4.687-192.030 167.3-192.030 167.3-14.89 14.025-28.075 42.193-29.304 62.628l-7.961 133.838c-1.231 20.418 14.515 37.118 34.983 37.118h733.996c20.453-0.003 36.197-16.7 34.967-37.118zM414.647 777.555h-91.28v-41.053h91.28v41.053zM414.647 689.657h-91.28v-41.053h91.28v41.053zM414.647 601.755h-91.28v-41.053h91.28v41.053zM541.184 777.555h-91.281v-41.053h91.28l0.001 41.053zM541.184 689.657h-91.281v-41.053h91.28l0.001 41.053zM541.184 601.755h-91.281v-41.053h91.28l0.001 41.053zM667.72 777.554h-91.28v-41.053h91.28v41.053zM667.72 689.657h-91.28v-41.053h91.28v41.053zM667.72 601.756h-91.28v-41.053h91.28v41.053z"
          p-id="3542"></path>
</svg>
