<svg t="1617080923749" class="icon" viewBox="0 0 1025 1024" version="1.1" xmlns="http://www.w3.org/2000/svg" p-id="2049" width="200" height="200">
    <path d="M511.062 77c143.317 67.291 258.119 104.66 344.405 112.11C873.305 190.648 887 205.577 887 223.48v333.564C856.667 757.94 731 895.258 510 969c-223.854-74.019-349.521-211.337-377-411.955V224.16c0-18.16 14.077-33.21 32.195-34.423 89.313-5.98 204.602-43.558 345.867-112.736zM711.97 367.073c-12.723-12.798-33.324-12.798-46.014 0L461.201 572.807 354.044 465.14c-12.69-12.766-33.291-12.766-46.014 0-12.69 12.765-12.69 33.48 0 46.246l130.164 130.79c6.361 6.366 14.668 9.565 23.007 9.565 8.306 0 16.645-3.2 23.007-9.566l227.762-228.89c12.69-12.765 12.69-33.447 0-46.213z"
    />
</svg>
